<svg width="532" height="532" viewBox="0 0 532 532" fill="none" xmlns="http://www.w3.org/2000/svg">
    <path d="M444.504 82.5C398.39 37.6331 335.422 10 266 10C124.615 10 10 124.615 10 266C10 326.081 30.6972 381.328 65.3506 
    425M477.349 121.5C505.52 162.624 522 212.388 522 266C522 407.385 407.385 522 266 522C202.188 522 143.829 498.653 99 460.034" 
        stroke="white" stroke-width="20"/>
    <path d="M107.919 173.266H130.746L188.974 318.163L247.079 173.266H270.028L197.763 351H179.94L107.919 
    173.266ZM100.473 173.266H120.614L123.91 281.664V351H100.473V173.266ZM257.211 173.266H277.353V351H253.915V281.664L257.211 
    173.266ZM318.734 173.266H377.572C390.919 173.266 402.19 175.3 411.386 179.369C420.663 183.438 427.702 189.46 432.504 
    197.436C437.387 205.329 439.828 215.054 439.828 226.61C439.828 234.748 438.16 242.195 434.823 248.949C431.568 255.622 
    426.848 261.319 420.663 266.039C414.56 270.678 407.235 274.136 398.69 276.415L392.099 278.979H336.801L336.557 
    259.813H378.305C386.768 259.813 393.808 258.349 399.423 255.419C405.038 252.408 409.27 248.38 412.118 243.334C414.966 
    238.288 416.391 232.714 416.391 226.61C416.391 219.774 415.048 213.793 412.362 208.666C409.677 203.539 405.445 199.592 
    399.667 196.825C393.97 193.977 386.605 192.553 377.572 192.553H342.294V351H318.734V173.266ZM422.616 351L379.403 270.434L403.939 
    270.312L447.763 349.535V351H422.616Z" fill="white"/>
</svg>